<svg width="37" height="37" viewBox="0 0 37 37" fill="none" xmlns="http://www.w3.org/2000/svg">
<path d="M11.23 8.38507C12.1908 8.38507 13.0795 8.46007 13.8914 8.68207C14.7049 8.83057 15.371 9.12757 15.9619 9.49807C16.5543 9.87007 16.9979 10.3891 17.2926 11.0566C17.5888 11.7241 17.7377 12.5416 17.7377 13.4311C17.7377 14.4706 17.5151 15.3601 16.9979 16.0276C16.5543 16.6966 15.8145 17.2891 14.9274 17.7346C16.1844 18.1066 17.1452 18.7741 17.7377 19.6651C18.3286 20.5546 18.6985 21.6676 18.6985 22.9291C18.6985 23.9686 18.4759 24.8581 18.1061 25.6006C17.7377 26.3431 17.1452 27.0106 16.4791 27.4561C15.7556 27.9336 14.9557 28.2846 14.114 28.4941C13.2268 28.7176 12.3397 28.8661 11.4526 28.8661H1.54224V8.38507H11.23ZM10.6376 16.6951C11.4511 16.6951 12.1172 16.4731 12.6344 16.1026C13.1516 15.7321 13.3742 15.0631 13.3742 14.2471C13.3742 13.8016 13.299 13.3576 13.1516 13.0606C13.0043 12.7636 12.7818 12.5401 12.487 12.3181C12.1908 12.1696 11.8946 12.0211 11.5247 11.9476C11.1548 11.8726 10.7865 11.8726 10.3414 11.8726H6.05308V16.6966H10.6391L10.6376 16.6951ZM10.8601 25.4521C11.3037 25.4521 11.7473 25.3771 12.1172 25.3036C12.487 25.2286 12.8569 25.0816 13.1516 24.8581C13.4529 24.6409 13.705 24.3629 13.8914 24.0421C14.0388 23.6716 14.1876 23.2261 14.1876 22.7071C14.1876 21.6676 13.8914 20.9251 13.3005 20.4061C12.7081 19.9606 11.8946 19.7386 10.9338 19.7386H6.05308V25.4536L10.8601 25.4521ZM25.1324 25.3771C25.7234 25.9711 26.6105 26.2681 27.7938 26.2681C28.6073 26.2681 29.3471 26.0461 29.938 25.6756C30.5304 25.2301 30.9003 24.7846 31.0477 24.3406H34.6714C34.0789 26.1196 33.1918 27.3811 32.01 28.1986C30.8251 28.9396 29.4208 29.3851 27.7202 29.3851C26.6321 29.3884 25.5532 29.1869 24.54 28.7911C23.6283 28.45 22.8153 27.8894 22.1733 27.1591C21.4866 26.4759 20.979 25.6347 20.6953 24.7096C20.3254 23.7451 20.1765 22.7071 20.1765 21.5191C20.1765 20.4061 20.3254 19.3681 20.6953 18.4021C21.0515 17.4726 21.5783 16.6175 22.2485 15.8806C22.9238 15.1888 23.727 14.6341 24.6137 14.2471C25.6011 13.8512 26.656 13.6495 27.7202 13.6531C28.9772 13.6531 30.0869 13.8766 31.0477 14.3956C32.01 14.9146 32.7482 15.5086 33.3392 16.3996C33.9316 17.2156 34.3767 18.1801 34.6714 19.2196C34.8187 20.2576 34.8924 21.2971 34.8187 22.4836H24.0965C24.0965 23.6716 24.54 24.7846 25.1324 25.3786V25.3771ZM29.7906 17.5861C29.2734 17.0671 28.4599 16.7701 27.4976 16.7701C26.833 16.7701 26.3143 16.9201 25.8707 17.1421C25.4272 17.3641 25.1324 17.6611 24.8362 17.9581C24.5636 18.2448 24.3829 18.6063 24.3175 18.9961C24.2438 19.3681 24.1701 19.6651 24.1701 19.9606H30.8251C30.6778 18.8476 30.3079 18.1066 29.7906 17.5861ZM23.283 9.79507H31.5649V11.7991H23.2845V9.79507H23.283Z" fill="black"/>
</svg>
