<svg width="37" height="37" viewBox="0 0 37 37" fill="none" xmlns="http://www.w3.org/2000/svg">
<path d="M11.129 7.86002C11.1286 8.65567 10.8113 9.41857 10.2471 9.9809C9.68285 10.5432 8.91779 10.8589 8.12023 10.8585C7.32266 10.8581 6.55792 10.5417 5.99424 9.97878C5.43055 9.41589 5.1141 8.65267 5.1145 7.85702C5.1149 7.06137 5.43212 6.29847 5.99636 5.73614C6.56061 5.17381 7.32567 4.85812 8.12323 4.85852C8.9208 4.85892 9.68554 5.17537 10.2492 5.73826C10.8129 6.30115 11.1294 7.06437 11.129 7.86002ZM11.2192 13.08H5.20472V31.86H11.2192V13.08ZM20.722 13.08H14.7376V31.86H20.6619V22.005C20.6619 16.515 27.8341 16.005 27.8341 22.005V31.86H33.7734V19.965C33.7734 10.71 23.1579 11.055 20.6619 15.6L20.722 13.08Z" fill="black"/>
</svg>
