<svg width="51" height="51" viewBox="0 0 51 51" fill="none" xmlns="http://www.w3.org/2000/svg">
<g clip-path="url(#clip0_12_60)">
<path d="M36.4893 0.408752H14.6143C12.0361 0.408752 9.92676 2.51813 9.92676 5.09625V45.7213C9.92676 48.2994 12.0361 50.4088 14.6143 50.4088H36.4893C39.0674 50.4088 41.1768 48.2994 41.1768 45.7213V5.09625C41.1768 2.51813 39.0674 0.408752 36.4893 0.408752ZM19.3018 2.7525H31.8018V4.315H19.3018V2.7525ZM25.5518 47.2838C24.723 47.2838 23.9281 46.9545 23.342 46.3685C22.756 45.7824 22.4268 44.9876 22.4268 44.1588C22.4268 43.33 22.756 42.5351 23.342 41.949C23.9281 41.363 24.723 41.0338 25.5518 41.0338C26.3806 41.0338 27.1754 41.363 27.7615 41.949C28.3475 42.5351 28.6768 43.33 28.6768 44.1588C28.6768 44.9876 28.3475 45.7824 27.7615 46.3685C27.1754 46.9545 26.3806 47.2838 25.5518 47.2838ZM38.0518 37.9088H13.0518V6.65875H38.0518V37.9088Z" fill="#694B86"/>
</g>
<defs>
<clipPath id="clip0_12_60">
<rect width="50" height="50" fill="white" transform="translate(0.551758 0.408752)"/>
</clipPath>
</defs>
</svg>
