<svg width="42" height="43" viewBox="0 0 42 43" fill="none" xmlns="http://www.w3.org/2000/svg">
<path d="M7.46806 0.729605C7.7333 0.857138 7.95713 1.05699 8.11377 1.30614C8.27041 1.5553 8.35351 1.84363 8.35348 2.13794C8.35348 3.86711 9.00348 4.86294 9.81806 6.07544L9.87848 6.16294C10.5701 7.19211 11.4785 8.54002 11.4785 10.4713C11.4785 12.4421 10.4847 14.1796 8.97014 15.2109C9.36875 15.5442 9.72014 15.956 10.0243 16.4463C11.016 18.0504 11.4785 20.5025 11.4785 24.0234C11.4785 27.59 10.9993 31.8734 10.2181 35.2942C9.83056 36.9942 9.34931 38.5629 8.77639 39.74C8.50715 40.3264 8.14874 40.8675 7.71389 41.3442C7.28473 41.7838 6.62431 42.2525 5.74931 42.2525C4.87431 42.2525 4.21389 41.7838 3.78681 41.3442C3.35196 40.8675 2.99355 40.3264 2.72431 39.74C2.14931 38.5609 1.66806 36.9942 1.28056 35.2921C0.46719 31.5896 0.0447365 27.812 0.0201418 24.0213C0.0201418 20.5004 0.482642 18.0504 1.47431 16.4463C1.75602 15.9798 2.11211 15.5625 2.52848 15.2109C1.75547 14.6854 1.12277 13.9788 0.685561 13.1526C0.248348 12.3265 0.0198997 11.406 0.0201418 10.4713C0.0201418 9.70461 0.0201416 8.38586 0.818058 6.68377C1.59931 5.01711 3.08473 3.10252 5.81389 0.917105C6.04391 0.733114 6.32125 0.617886 6.61392 0.584711C6.9066 0.551536 7.2027 0.601765 7.46806 0.729605ZM3.14514 10.4692C3.14514 11.1599 3.41951 11.8243 3.90788 12.3127C4.39626 12.8011 5.05864 13.0754 5.74931 13.0754C6.43998 13.0754 7.10236 12.8011 7.59073 12.3127C8.07911 11.8243 8.35348 11.1619 8.35348 10.4713C8.35348 9.55669 7.96806 8.92336 7.22431 7.8171L7.19931 7.77961C6.72223 7.07127 6.15764 6.23169 5.75764 5.1546C4.62639 6.30461 4.00139 7.25877 3.64931 8.00877C3.14514 9.08377 3.14514 9.85044 3.14514 10.4692ZM4.13264 18.0859C3.61598 18.9234 3.14514 20.64 3.14514 24.0213C3.14514 27.3567 3.59931 31.4067 4.32639 34.5963C4.69306 36.2004 5.10972 37.5025 5.53264 38.3692C5.61042 38.5289 5.68264 38.6643 5.74931 38.7754C5.81598 38.6643 5.8882 38.5289 5.96598 38.3692C6.38889 37.5025 6.80556 36.1984 7.17223 34.5963C7.90139 31.4088 8.35348 27.3588 8.35348 24.0213C8.35348 20.64 7.88264 18.9234 7.36598 18.0859C7.20879 17.8049 6.97363 17.5756 6.68889 17.4254C6.39349 17.2951 6.07183 17.2352 5.74931 17.2504C5.33264 17.2504 5.03472 17.315 4.80972 17.4254C4.52499 17.5756 4.28983 17.8049 4.13264 18.0859ZM16.6868 27.4879C15.5833 27.3017 14.5098 26.9682 13.4951 26.4963C13.5563 25.3147 13.5737 24.1312 13.5472 22.9484C14.4868 23.5796 15.5472 24.0442 16.6868 24.3025V18.2838C16.6868 17.455 17.016 16.6601 17.6021 16.0741C18.1882 15.488 18.983 15.1588 19.8118 15.1588H28.1451C28.145 13.4102 27.6559 11.6965 26.7331 10.2113C25.8102 8.72616 24.4904 7.52866 22.9228 6.75414C21.3551 5.97963 19.6021 5.65897 17.8617 5.8284C16.1214 5.99783 14.4631 6.65059 13.0743 7.71294C12.6576 6.56086 12.0639 5.67961 11.6514 5.06711L11.5681 4.94211C13.4398 3.62262 15.6381 2.8427 17.923 2.6875C20.2078 2.53229 22.4914 3.00776 24.5245 4.062C26.5575 5.11625 28.2618 6.70874 29.4514 8.66565C30.641 10.6226 31.2701 12.8687 31.2701 15.1588H38.5618C39.3906 15.1588 40.1855 15.488 40.7715 16.0741C41.3576 16.6601 41.6868 17.455 41.6868 18.2838V37.0338C41.6868 37.8626 41.3576 38.6574 40.7715 39.2435C40.1855 39.8295 39.3906 40.1588 38.5618 40.1588H19.8118C18.983 40.1588 18.1882 39.8295 17.6021 39.2435C17.016 38.6574 16.6868 37.8626 16.6868 37.0338V27.4879ZM19.8118 27.6192V37.0359H38.5618V18.2859H30.8743C30.2263 20.7969 28.8134 23.0443 26.8313 24.7165C24.8492 26.3888 22.3961 27.4032 19.8118 27.6192ZM27.6118 18.2859H19.8118V24.4796C21.5625 24.2843 23.2228 23.5997 24.6024 22.5042C25.9819 21.4088 27.0249 19.9468 27.6118 18.2859Z" fill="#694B86"/>
</svg>
